<svg width="48" height="48" viewBox="0 0 48 48" fill="none" xmlns="http://www.w3.org/2000/svg">
  <rect width="48" height="48" rx="12" fill="url(#gradient)"/>
  <path d="M14 18C14 16.3431 15.3431 15 17 15H24C25.6569 15 27 16.3431 27 18V24C27 25.6569 25.6569 27 24 27H17C15.3431 27 14 25.6569 14 24V18Z" fill="white" opacity="0.9"/>
  <path d="M21 21C21 19.3431 22.3431 18 24 18H31C32.6569 18 34 19.3431 34 21V27C34 28.6569 32.6569 30 31 30H24C22.3431 30 21 28.6569 21 27V21Z" fill="white" opacity="0.7"/>
  <circle cx="24" cy="33" r="3" fill="white"/>
  <defs>
    <linearGradient id="gradient" x1="0" y1="0" x2="48" y2="48" gradientUnits="userSpaceOnUse">
      <stop stop-color="#3B82F6"/>
      <stop offset="1" stop-color="#1D4ED8"/>
    </linearGradient>
  </defs>
</svg>
